#!OML:ASF E:\Mandelcareful walks\Project 1\Capture day 1\Session 1\Subject1.ASF
:FULLY-SPECIFIED
:DEGREES
1106
root 3.67767 9.52111 1.2168 -92.6488 -85.4266 84.0743
lowerback 39.5373 0.47878 -4.12321
upperback 8.61789 -2.34545 -0.566061
thorax -9.48493 -1.5391 2.5844
lowerneck -22.3571 -13.5638 -15.1499
upperneck 10.5782 -16.1462 13.2171
head 9.26816 -7.07678 4.33569
rclavicle 1.79652e-014 -1.73937e-014
rhumerus -9.9059 -27.216 -38.1466
rradius 32.809
rwrist -36.9739
rhand -6.61865 -30.8336
rfingers 7.12502
rthumb 19.2376 -59.9022
lclavicle 1.79652e-014 -1.73937e-014
lhumerus -13.3381 25.3117 33.9371
lradius 26.2359
lwrist 21.9088
lhand -31.4078 -12.0418
lfingers 7.12502
lthumb -4.67696 17.8866
rfemur -54.1906 -48.678 -18.5712
rtibia 128.88
rfoot -26.1535 33.9794
rtoes -11.0791
lfemur -54.9568 42.011 3.23311
ltibia 132.139
lfoot -28.1328 -24.1613
ltoes -17.2594
1107
root 3.66792 9.64434 1.20976 -93.6767 -85.4533 85.1719
lowerback 39.9768 0.545691 -4.23026
upperback 7.99192 -2.27017 -0.467663
thorax -10.3306 -1.4432 2.73871
lowerneck -21.9223 -13.635 -15.499
upperneck 10.8353 -16.2432 13.2852
head 9.33682 -7.1393 4.4056
rclavicle 1.0225e-014 6.83322e-015
rhumerus -10.9151 -27.1329 -37.0075
rradius 32.9504
rwrist -37.5877
rhand -6.48525 -30.5156
rfingers 7.12502
rthumb 19.3658 -59.5713
lclavicle 1.0225e-014 6.83322e-015
lhumerus -14.3222 25.5065 33.0113
lradius 26.3463
lwrist 22.1676
lhand -31.349 -12.1966
lfingers 7.12502
lthumb -4.62014 17.733
rfemur -53.8824 -47.19 -17.6058
rtibia 127.867
rfoot -26.0007 33.1976
rtoes -10.8168
lfemur -54.4552 40.7595 2.68452
ltibia 131.118
lfoot -28.2493 -23.3617
ltoes -17.3382
1108
root 3.65146 9.7602 1.20245 -94.7364 -85.7784 86.3261
lowerback 38.9544 0.52439 -3.96126
upperback 8.50189 -2.13997 -0.383609
thorax -9.4344 -1.4343 2.60514
lowerneck -22.0726 -13.7434 -15.5404
upperneck 10.3276 -16.3545 13.5311
head 9.23115 -7.17697 4.46933
rclavicle -2.85815e-014 2.48481e-014
rhumerus -10.602 -28.6669 -36.6095
rradius 32.7015
rwrist -37.5577
rhand -6.24785 -30.6097
rfingers 7.12502
rthumb 19.5941 -59.6422
lclavicle -2.85815e-014 2.48481e-014
lhumerus -14.0128 27.3211 32.547
lradius 26.2228
lwrist 21.7075
lhand -31.4645 -11.9226
lfingers 7.12502
lthumb -4.7317 18.0046
rfemur -53.5045 -45.7328 -16.398
rtibia 126.899
rfoot -25.9339 32.3634
rtoes -10.5035
lfemur -53.8066 39.8719 2.78113
ltibia 130.162
lfoot -28.1994 -22.9555
ltoes -17.0959
1109
root 3.63476 9.87778 1.19862 -95.5303 -86.0422 87.2362
lowerback 39.1759 0.44174 -3.74714
upperback 7.97215 -2.11294 -0.311153
thorax -10.1108 -1.37449 2.57765
lowerneck -21.8 -13.6495 -15.5193
upperneck 10.6162 -16.2365 13.21
head 9.23289 -7.15376 4.39033
rclavicle 6.78819e-015 9.81499e-015
rhumerus -10.964 -29.8712 -35.7464
rradius 32.0705
rwrist -36.78
rhand -5.54786 -30.7357
rfingers 7.12502
rthumb 20.267 -59.6983
lclavicle 6.78819e-015 9.81499e-015
lhumerus -14.8551 27.5561 31.6166
lradius 26.3029
lwrist 21.6805
lhand -31.6506 -11.8109
lfingers 7.12502
lthumb -4.91134 18.1122
rfemur -53.1314 -44.2981 -15.2893
rtibia 125.861
rfoot -25.8138 31.6261
rtoes -10.2712
lfemur -53.0979 38.9354 2.80133
ltibia 129.202
lfoot -28.1633 -22.6973
ltoes -16.6812
1110
root 3.62731 10.0048 1.19652 -95.417 -85.9875 87.248
lowerback 38.7997 0.395052 -3.80509
upperback 7.96212 -2.16688 -0.344969
thorax -9.99199 -1.39543 2.58694
lowerneck -21.6602 -13.6406 -15.5176
upperneck 10.4524 -16.245 13.2863
head 9.16302 -7.16038 4.42111
rclavicle 2.36926e-014 -1.96921e-015
rhumerus -10.6587 -31.6101 -35.4243
rradius 31.523
rwrist -36.5992
rhand -5.9686 -30.5856
rfingers 7.12502
rthumb 19.8625 -59.5906
lclavicle 2.36926e-014 -1.96921e-015
lhumerus -15.2759 28.3822 30.8203
lradius 26.4035
lwrist 21.698
lhand -31.5429 -11.95
lfingers 7.12502
lthumb -4.8074 17.9754
rfemur -52.648 -43.0878 -14.6556
rtibia 124.76
rfoot -25.431 31.1529
rtoes -9.59154
lfemur -52.6921 37.587 2.04507
ltibia 128.13
lfoot -27.9985 -22.1382
ltoes -16.4935
1111
root 3.61898 10.1341 1.19377 -96.8832 -86.0077 88.8367
lowerback 38.438 0.400172 -3.85065
upperback 7.9076 -2.14241 -0.326618
thorax -9.92988 -1.37744 2.61514
lowerneck -21.5284 -13.6971 -15.6841
upperneck 10.4146 -16.3301 13.4848
head 9.17642 -7.19456 4.50105
rclavicle 3.93532e-015 -1.50766e-014
rhumerus -10.5493 -32.7533 -34.9368
rradius 31.0735
rwrist -36.4045
rhand -5.87357 -30.1841
rfingers 7.12502
rthumb 19.9539 -59.1796
lclavicle 3.93532e-015 -1.50766e-014
lhumerus -15.786 28.955 30.0987
lradius 26.576
lwrist 21.821
lhand -31.3019 -11.7836
lfingers 7.12502
lthumb -4.57465 18.147
rfemur -52.2658 -41.7898 -13.8283
rtibia 123.664
rfoot -25.1907 30.5314
rtoes -8.80551
lfemur -52.3255 36.4716 1.42458
ltibia 127.032
lfoot -27.7424 -21.4433
ltoes -16.2804
1112
root 3.60286 10.2565 1.18919 -99.9518 -86.3173 92.0126
lowerback 38.0256 0.39684 -3.65348
upperback 7.84081 -2.01673 -0.211341
thorax -9.8741 -1.31603 2.5795
lowerneck -21.664 -13.7592 -15.736
upperneck 10.6659 -16.3944 13.4295
head 9.29295 -7.21944 4.46947
rclavicle 6.86739e-015 -2.12575e-014
rhumerus -10.6561 -33.5229 -34.3202
rradius 30.7803
rwrist -36.3545
rhand -5.86186 -29.8292
rfingers 7.12502
rthumb 19.9651 -58.8236
lclavicle 6.86739e-015 -2.12575e-014
lhumerus -16.2333 29.6345 29.4641
lradius 26.66
lwrist 21.6353
lhand -31.2215 -11.3484
lfingers 7.12502
lthumb -4.49706 18.5839
rfemur -51.9843 -40.3077 -12.5579
rtibia 122.582
rfoot -25.2409 29.6272
rtoes -8.41088
lfemur -51.8079 35.7519 1.40785
ltibia 125.987
lfoot -27.605 -20.7806
ltoes -16.1196
1113
root 3.58633 10.3797 1.18254 -100.7 -86.4388 92.8349
lowerback 37.6347 0.37002 -3.56495
upperback 7.81138 -1.97679 -0.164128
thorax -9.77552 -1.2949 2.56151
lowerneck -21.9318 -13.8053 -15.6493
upperneck 10.9349 -16.4347 13.2545
head 9.40922 -7.23312 4.37619
rclavicle -1.15854e-014 9.36773e-015
rhumerus -10.8048 -34.3628 -33.7256
rradius 30.5735
rwrist -36.2138
rhand -5.81513 -29.729
rfingers 7.12502
rthumb 20.0101 -58.7187
lclavicle -1.15854e-014 9.36773e-015
lhumerus -16.5594 30.3374 28.8278
lradius 26.6674
lwrist 21.4026
lhand -31.5638 -10.8206
lfingers 7.12502
lthumb -4.82756 19.1044
rfemur -51.4715 -39.0998 -11.7267
rtibia 121.464
rfoot -25.1488 28.885
rtoes -8.10251
lfemur -51.2872 34.7094 0.982634
ltibia 124.83
lfoot -27.6281 -19.8327
ltoes -16.3198
1114
root 3.56821 10.517 1.17882 -99.3583 -86.2848 91.5313
lowerback 37.2839 0.351594 -3.67734
upperback 7.76825 -2.01278 -0.181136
thorax -9.69578 -1.30403 2.61087
lowerneck -22.0209 -13.8694 -15.6702
upperneck 11.0992 -16.4979 13.1496
head 9.48006 -7.26506 4.32538
rclavicle 2.24627e-014 -1.06598e-014
rhumerus -10.9772 -35.3589 -33.1012
rradius 30.4236
rwrist -35.7337
rhand -5.35988 -30.0059
rfingers 7.12502
rthumb 20.4476 -58.9492
lclavicle 2.24627e-014 -1.06598e-014
lhumerus -16.8507 30.6933 28.2241
lradius 26.517
lwrist 21.5667
lhand -32.1979 -10.5067
lfingers 7.12502
lthumb -5.43982 19.4035
rfemur -50.6447 -38.0778 -11.3945
rtibia 120.2
rfoot -25.2295 28.133
rtoes -8.1173
lfemur -50.7464 33.2566 -0.0325748
ltibia 123.525
lfoot -27.8305 -18.5378
ltoes -17.2834
1115
root 3.54945 10.6538 1.17868 -98.2997 -86.2416 90.5093
lowerback 37.0223 0.302423 -3.66694
upperback 7.63191 -2.03608 -0.181303
thorax -9.7551 -1.30086 2.61275
lowerneck -21.9263 -13.9128 -15.758
upperneck 11.311 -16.5604 13.112
head 9.55097 -7.29959 4.31473
rclavicle -5.29264e-015 -1.86112e-014
rhumerus -11.1825 -36.4391 -32.4629
rradius 30.1644
rwrist -35.0252
rhand -5.00141 -30.0821
rfingers 7.12502
rthumb 20.7921 -58.9881
lclavicle -5.29264e-015 -1.86112e-014
lhumerus -17.2582 31.0167 27.5732
lradius 26.3599
lwrist 21.5038
lhand -32.1123 -10.7305
lfingers 7.12502
lthumb -5.35713 19.1818
rfemur -49.7287 -37.0312 -10.9272
rtibia 118.871
rfoot -25.6724 27.1415
rtoes -8.70824
lfemur -50.0125 31.9661 -0.735183
ltibia 122.311
lfoot -28.1214 -17.5277
ltoes -17.8368
1116
root 3.53381 10.7721 1.17503 -99.3762 -86.2624 91.6368
lowerback 36.7376 0.314312 -3.69808
upperback 7.50115 -1.99567 -0.15211
thorax -9.80041 -1.26912 2.64216
lowerneck -21.8226 -13.8867 -15.7055
upperneck 11.4795 -16.5337 12.9197
head 9.56332 -7.30321 4.25009
rclavicle -3.23771e-014 -4.62174e-015
rhumerus -11.3503 -37.1022 -31.8693
rradius 29.8617
rwrist -34.7255
rhand -5.16934 -29.9226
rfingers 7.12502
rthumb 20.6307 -58.8461
lclavicle -3.23771e-014 -4.62174e-015
lhumerus -17.6883 30.4332 27.2468
lradius 27.0784
lwrist 23.4537
lhand -33.1387 -8.97658
lfingers 7.12502
lthumb -6.34813 20.9083
rfemur -49.1083 -36.0226 -10.2878
rtibia 117.706
rfoot -25.8745 26.2439
rtoes -8.94821
lfemur -49.1365 31.1379 -1.06008
ltibia 121.218
lfoot -28.2608 -16.9146
ltoes -17.5458
1117
root 3.51819 10.8896 1.16889 -102.288 -86.1954 94.6081
lowerback 36.3584 0.409877 -3.88268
upperback 7.43469 -1.90423 -0.0933387
thorax -9.73601 -1.21801 2.76071
lowerneck -21.8038 -13.9491 -15.797
upperneck 11.6491 -16.5745 12.7439
head 9.6134 -7.33895 4.19387
rclavicle -4.60683e-014 1.55549e-014
rhumerus -11.5302 -37.4171 -31.278
rradius 29.8281
rwrist -35.0108
rhand -5.45018 -29.8449
rfingers 7.12502
rthumb 20.3608 -58.7975
lclavicle -4.60683e-014 1.55549e-014
lhumerus -18.2001 29.9955 26.9475
lradius 27.7673
lwrist 25.2098
lhand -34.0365 -7.93808
lfingers 7.12502
lthumb -7.21483 21.9189
rfemur -48.6997 -35.045 -9.6567
rtibia 116.636
rfoot -25.8749 25.4556
rtoes -8.82297
lfemur -48.3425 30.4641 -1.48988
ltibia 120.049
lfoot -28.3268 -16.1635
ltoes -17.7222
1118
root 3.50252 11.0125 1.16489 -104.185 -86.2118 96.544
lowerback 35.9634 0.430669 -3.87702
upperback 7.43048 -1.84424 -0.0795035
thorax -9.60081 -1.18933 2.74249
lowerneck -21.9903 -14.2828 -16.3364
upperneck 12.0824 -16.9837 13.1806
head 9.95242 -7.49112 4.32399
rclavicle 2.22142e-014 1.59028e-014
rhumerus -11.7126 -38.3278 -30.7595
rradius 29.782
rwrist -35.0424
rhand -5.32819 -29.8937
rfingers 7.12502
rthumb 20.4781 -58.8338
lclavicle 2.22142e-014 1.59028e-014
lhumerus -18.5885 30.0348 26.522
lradius 28.0501
lwrist 25.9757
lhand -34.3656 -8.30914
lfingers 7.12502
lthumb -7.53243 21.5367
rfemur -48.0968 -34.0858 -9.01631
rtibia 115.498
rfoot -25.8425 24.6653
rtoes -8.64784
lfemur -47.6122 29.6229 -1.85583
ltibia 118.852
lfoot -28.5466 -15.472
ltoes -17.9506
1119
root 3.48873 11.132 1.15921 -106.324 -86.3402 98.7455
lowerback 35.5575 0.435666 -3.78902
upperback 7.42786 -1.77093 -0.0458881
thorax -9.46138 -1.15574 2.69713
lowerneck -22.1404 -14.254 -16.1167
upperneck 12.3996 -16.9661 12.9228
head 10.0388 -7.48501 4.19903
rclavicle -2.29348e-014 1.33683e-014
rhumerus -11.9045 -39.1791 -30.2669
rradius 29.6722
rwrist -35.0583
rhand -5.31639 -30.039
rfingers 7.12502
rthumb 20.4894 -58.9779
lclavicle -2.29348e-014 1.33683e-014
lhumerus -18.8626 30.4938 25.9866
lradius 27.8735
lwrist 25.6613
lhand -34.0277 -9.7166
lfingers 7.12502
lthumb -7.20631 20.1407
rfemur -47.494 -33.0879 -8.19971
rtibia 114.31
rfoot -25.7159 23.7787
rtoes -8.00335
lfemur -46.8676 28.8188 -1.98373
ltibia 117.682
lfoot -28.6875 -15.1224
ltoes -17.3542
1120
root 3.47777 11.2559 1.15229 -108.232 -86.3275 100.73
lowerback 35.2293 0.496335 -3.90695
upperback 7.34557 -1.69807 0.0162155
thorax -9.431 -1.11255 2.79392
lowerneck -21.7737 -14.2543 -16.3691
upperneck 12.105 -16.9965 13.2817
head 9.94139 -7.49738 4.37035
rclavicle 1.88348e-014 2.28602e-014
rhumerus -12.1306 -39.4582 -29.691
rradius 29.6378
rwrist -35.4676
rhand -5.51341 -29.997
rfingers 7.12502
rthumb 20.3001 -58.9561
lclavicle 1.88348e-014 2.28602e-014
lhumerus -19.2806 30.8485 25.4566
lradius 27.8516
lwrist 25.1321
lhand -33.3541 -10.4471
lfingers 7.12502
lthumb -6.55607 19.4314
rfemur -46.9604 -32.1856 -7.52329
rtibia 113.097
rfoot -25.7997 22.8289
rtoes -7.70657
lfemur -46.1945 27.9743 -2.37184
ltibia 116.413
lfoot -28.6578 -14.5232
ltoes -16.942
